<?xml version="1.0" encoding="utf-8" ?>
<svg baseProfile="full" height="370" version="1.1" width="370" xmlns="http://www.w3.org/2000/svg" xmlns:ev="http://www.w3.org/2001/xml-events" xmlns:xlink="http://www.w3.org/1999/xlink"><defs /><rect fill="black" height="10" width="10" x="40" y="40" /><rect fill="black" height="10" width="10" x="50" y="40" /><rect fill="black" height="10" width="10" x="60" y="40" /><rect fill="black" height="10" width="10" x="70" y="40" /><rect fill="black" height="10" width="10" x="80" y="40" /><rect fill="black" height="10" width="10" x="90" y="40" /><rect fill="black" height="10" width="10" x="100" y="40" /><rect fill="black" height="10" width="10" x="130" y="40" /><rect fill="black" height="10" width="10" x="160" y="40" /><rect fill="black" height="10" width="10" x="170" y="40" /><rect fill="black" height="10" width="10" x="190" y="40" /><rect fill="black" height="10" width="10" x="220" y="40" /><rect fill="black" height="10" width="10" x="240" y="40" /><rect fill="black" height="10" width="10" x="260" y="40" /><rect fill="black" height="10" width="10" x="270" y="40" /><rect fill="black" height="10" width="10" x="280" y="40" /><rect fill="black" height="10" width="10" x="290" y="40" /><rect fill="black" height="10" width="10" x="300" y="40" /><rect fill="black" height="10" width="10" x="310" y="40" /><rect fill="black" height="10" width="10" x="320" y="40" /><rect fill="black" height="10" width="10" x="40" y="50" /><rect fill="black" height="10" width="10" x="100" y="50" /><rect fill="black" height="10" width="10" x="170" y="50" /><rect fill="black" height="10" width="10" x="180" y="50" /><rect fill="black" height="10" width="10" x="190" y="50" /><rect fill="black" height="10" width="10" x="230" y="50" /><rect fill="black" height="10" width="10" x="240" y="50" /><rect fill="black" height="10" width="10" x="260" y="50" /><rect fill="black" height="10" width="10" x="320" y="50" /><rect fill="black" height="10" width="10" x="40" y="60" /><rect fill="black" height="10" width="10" x="60" y="60" /><rect fill="black" height="10" width="10" x="70" y="60" /><rect fill="black" height="10" width="10" x="80" y="60" /><rect fill="black" height="10" width="10" x="100" y="60" /><rect fill="black" height="10" width="10" x="130" y="60" /><rect fill="black" height="10" width="10" x="150" y="60" /><rect fill="black" height="10" width="10" x="180" y="60" /><rect fill="black" height="10" width="10" x="220" y="60" /><rect fill="black" height="10" width="10" x="240" y="60" /><rect fill="black" height="10" width="10" x="260" y="60" /><rect fill="black" height="10" width="10" x="280" y="60" /><rect fill="black" height="10" width="10" x="290" y="60" /><rect fill="black" height="10" width="10" x="300" y="60" /><rect fill="black" height="10" width="10" x="320" y="60" /><rect fill="black" height="10" width="10" x="40" y="70" /><rect fill="black" height="10" width="10" x="60" y="70" /><rect fill="black" height="10" width="10" x="70" y="70" /><rect fill="black" height="10" width="10" x="80" y="70" /><rect fill="black" height="10" width="10" x="100" y="70" /><rect fill="black" height="10" width="10" x="130" y="70" /><rect fill="black" height="10" width="10" x="180" y="70" /><rect fill="black" height="10" width="10" x="210" y="70" /><rect fill="black" height="10" width="10" x="230" y="70" /><rect fill="black" height="10" width="10" x="240" y="70" /><rect fill="black" height="10" width="10" x="260" y="70" /><rect fill="black" height="10" width="10" x="280" y="70" /><rect fill="black" height="10" width="10" x="290" y="70" /><rect fill="black" height="10" width="10" x="300" y="70" /><rect fill="black" height="10" width="10" x="320" y="70" /><rect fill="black" height="10" width="10" x="40" y="80" /><rect fill="black" height="10" width="10" x="60" y="80" /><rect fill="black" height="10" width="10" x="70" y="80" /><rect fill="black" height="10" width="10" x="80" y="80" /><rect fill="black" height="10" width="10" x="100" y="80" /><rect fill="black" height="10" width="10" x="120" y="80" /><rect fill="black" height="10" width="10" x="140" y="80" /><rect fill="black" height="10" width="10" x="170" y="80" /><rect fill="black" height="10" width="10" x="180" y="80" /><rect fill="black" height="10" width="10" x="190" y="80" /><rect fill="black" height="10" width="10" x="210" y="80" /><rect fill="black" height="10" width="10" x="230" y="80" /><rect fill="black" height="10" width="10" x="260" y="80" /><rect fill="black" height="10" width="10" x="280" y="80" /><rect fill="black" height="10" width="10" x="290" y="80" /><rect fill="black" height="10" width="10" x="300" y="80" /><rect fill="black" height="10" width="10" x="320" y="80" /><rect fill="black" height="10" width="10" x="40" y="90" /><rect fill="black" height="10" width="10" x="100" y="90" /><rect fill="black" height="10" width="10" x="130" y="90" /><rect fill="black" height="10" width="10" x="140" y="90" /><rect fill="black" height="10" width="10" x="150" y="90" /><rect fill="black" height="10" width="10" x="170" y="90" /><rect fill="black" height="10" width="10" x="190" y="90" /><rect fill="black" height="10" width="10" x="200" y="90" /><rect fill="black" height="10" width="10" x="230" y="90" /><rect fill="black" height="10" width="10" x="240" y="90" /><rect fill="black" height="10" width="10" x="260" y="90" /><rect fill="black" height="10" width="10" x="320" y="90" /><rect fill="black" height="10" width="10" x="40" y="100" /><rect fill="black" height="10" width="10" x="50" y="100" /><rect fill="black" height="10" width="10" x="60" y="100" /><rect fill="black" height="10" width="10" x="70" y="100" /><rect fill="black" height="10" width="10" x="80" y="100" /><rect fill="black" height="10" width="10" x="90" y="100" /><rect fill="black" height="10" width="10" x="100" y="100" /><rect fill="black" height="10" width="10" x="120" y="100" /><rect fill="black" height="10" width="10" x="140" y="100" /><rect fill="black" height="10" width="10" x="160" y="100" /><rect fill="black" height="10" width="10" x="180" y="100" /><rect fill="black" height="10" width="10" x="200" y="100" /><rect fill="black" height="10" width="10" x="220" y="100" /><rect fill="black" height="10" width="10" x="240" y="100" /><rect fill="black" height="10" width="10" x="260" y="100" /><rect fill="black" height="10" width="10" x="270" y="100" /><rect fill="black" height="10" width="10" x="280" y="100" /><rect fill="black" height="10" width="10" x="290" y="100" /><rect fill="black" height="10" width="10" x="300" y="100" /><rect fill="black" height="10" width="10" x="310" y="100" /><rect fill="black" height="10" width="10" x="320" y="100" /><rect fill="black" height="10" width="10" x="120" y="110" /><rect fill="black" height="10" width="10" x="130" y="110" /><rect fill="black" height="10" width="10" x="160" y="110" /><rect fill="black" height="10" width="10" x="170" y="110" /><rect fill="black" height="10" width="10" x="180" y="110" /><rect fill="black" height="10" width="10" x="210" y="110" /><rect fill="black" height="10" width="10" x="220" y="110" /><rect fill="black" height="10" width="10" x="240" y="110" /><rect fill="black" height="10" width="10" x="60" y="120" /><rect fill="black" height="10" width="10" x="70" y="120" /><rect fill="black" height="10" width="10" x="100" y="120" /><rect fill="black" height="10" width="10" x="110" y="120" /><rect fill="black" height="10" width="10" x="120" y="120" /><rect fill="black" height="10" width="10" x="150" y="120" /><rect fill="black" height="10" width="10" x="170" y="120" /><rect fill="black" height="10" width="10" x="190" y="120" /><rect fill="black" height="10" width="10" x="230" y="120" /><rect fill="black" height="10" width="10" x="240" y="120" /><rect fill="black" height="10" width="10" x="250" y="120" /><rect fill="black" height="10" width="10" x="260" y="120" /><rect fill="black" height="10" width="10" x="280" y="120" /><rect fill="black" height="10" width="10" x="40" y="130" /><rect fill="black" height="10" width="10" x="70" y="130" /><rect fill="black" height="10" width="10" x="80" y="130" /><rect fill="black" height="10" width="10" x="110" y="130" /><rect fill="black" height="10" width="10" x="130" y="130" /><rect fill="black" height="10" width="10" x="160" y="130" /><rect fill="black" height="10" width="10" x="170" y="130" /><rect fill="black" height="10" width="10" x="190" y="130" /><rect fill="black" height="10" width="10" x="200" y="130" /><rect fill="black" height="10" width="10" x="210" y="130" /><rect fill="black" height="10" width="10" x="250" y="130" /><rect fill="black" height="10" width="10" x="280" y="130" /><rect fill="black" height="10" width="10" x="320" y="130" /><rect fill="black" height="10" width="10" x="40" y="140" /><rect fill="black" height="10" width="10" x="50" y="140" /><rect fill="black" height="10" width="10" x="60" y="140" /><rect fill="black" height="10" width="10" x="90" y="140" /><rect fill="black" height="10" width="10" x="100" y="140" /><rect fill="black" height="10" width="10" x="120" y="140" /><rect fill="black" height="10" width="10" x="160" y="140" /><rect fill="black" height="10" width="10" x="190" y="140" /><rect fill="black" height="10" width="10" x="200" y="140" /><rect fill="black" height="10" width="10" x="210" y="140" /><rect fill="black" height="10" width="10" x="260" y="140" /><rect fill="black" height="10" width="10" x="270" y="140" /><rect fill="black" height="10" width="10" x="310" y="140" /><rect fill="black" height="10" width="10" x="40" y="150" /><rect fill="black" height="10" width="10" x="60" y="150" /><rect fill="black" height="10" width="10" x="90" y="150" /><rect fill="black" height="10" width="10" x="110" y="150" /><rect fill="black" height="10" width="10" x="120" y="150" /><rect fill="black" height="10" width="10" x="130" y="150" /><rect fill="black" height="10" width="10" x="140" y="150" /><rect fill="black" height="10" width="10" x="150" y="150" /><rect fill="black" height="10" width="10" x="180" y="150" /><rect fill="black" height="10" width="10" x="200" y="150" /><rect fill="black" height="10" width="10" x="210" y="150" /><rect fill="black" height="10" width="10" x="220" y="150" /><rect fill="black" height="10" width="10" x="230" y="150" /><rect fill="black" height="10" width="10" x="270" y="150" /><rect fill="black" height="10" width="10" x="290" y="150" /><rect fill="black" height="10" width="10" x="320" y="150" /><rect fill="black" height="10" width="10" x="50" y="160" /><rect fill="black" height="10" width="10" x="80" y="160" /><rect fill="black" height="10" width="10" x="90" y="160" /><rect fill="black" height="10" width="10" x="100" y="160" /><rect fill="black" height="10" width="10" x="110" y="160" /><rect fill="black" height="10" width="10" x="150" y="160" /><rect fill="black" height="10" width="10" x="170" y="160" /><rect fill="black" height="10" width="10" x="180" y="160" /><rect fill="black" height="10" width="10" x="200" y="160" /><rect fill="black" height="10" width="10" x="250" y="160" /><rect fill="black" height="10" width="10" x="270" y="160" /><rect fill="black" height="10" width="10" x="300" y="160" /><rect fill="black" height="10" width="10" x="310" y="160" /><rect fill="black" height="10" width="10" x="320" y="160" /><rect fill="black" height="10" width="10" x="40" y="170" /><rect fill="black" height="10" width="10" x="50" y="170" /><rect fill="black" height="10" width="10" x="80" y="170" /><rect fill="black" height="10" width="10" x="90" y="170" /><rect fill="black" height="10" width="10" x="110" y="170" /><rect fill="black" height="10" width="10" x="130" y="170" /><rect fill="black" height="10" width="10" x="160" y="170" /><rect fill="black" height="10" width="10" x="170" y="170" /><rect fill="black" height="10" width="10" x="180" y="170" /><rect fill="black" height="10" width="10" x="200" y="170" /><rect fill="black" height="10" width="10" x="230" y="170" /><rect fill="black" height="10" width="10" x="260" y="170" /><rect fill="black" height="10" width="10" x="270" y="170" /><rect fill="black" height="10" width="10" x="290" y="170" /><rect fill="black" height="10" width="10" x="300" y="170" /><rect fill="black" height="10" width="10" x="310" y="170" /><rect fill="black" height="10" width="10" x="320" y="170" /><rect fill="black" height="10" width="10" x="50" y="180" /><rect fill="black" height="10" width="10" x="80" y="180" /><rect fill="black" height="10" width="10" x="100" y="180" /><rect fill="black" height="10" width="10" x="120" y="180" /><rect fill="black" height="10" width="10" x="150" y="180" /><rect fill="black" height="10" width="10" x="170" y="180" /><rect fill="black" height="10" width="10" x="180" y="180" /><rect fill="black" height="10" width="10" x="210" y="180" /><rect fill="black" height="10" width="10" x="220" y="180" /><rect fill="black" height="10" width="10" x="230" y="180" /><rect fill="black" height="10" width="10" x="250" y="180" /><rect fill="black" height="10" width="10" x="270" y="180" /><rect fill="black" height="10" width="10" x="280" y="180" /><rect fill="black" height="10" width="10" x="290" y="180" /><rect fill="black" height="10" width="10" x="310" y="180" /><rect fill="black" height="10" width="10" x="320" y="180" /><rect fill="black" height="10" width="10" x="50" y="190" /><rect fill="black" height="10" width="10" x="70" y="190" /><rect fill="black" height="10" width="10" x="110" y="190" /><rect fill="black" height="10" width="10" x="120" y="190" /><rect fill="black" height="10" width="10" x="150" y="190" /><rect fill="black" height="10" width="10" x="160" y="190" /><rect fill="black" height="10" width="10" x="170" y="190" /><rect fill="black" height="10" width="10" x="180" y="190" /><rect fill="black" height="10" width="10" x="210" y="190" /><rect fill="black" height="10" width="10" x="220" y="190" /><rect fill="black" height="10" width="10" x="250" y="190" /><rect fill="black" height="10" width="10" x="260" y="190" /><rect fill="black" height="10" width="10" x="280" y="190" /><rect fill="black" height="10" width="10" x="290" y="190" /><rect fill="black" height="10" width="10" x="40" y="200" /><rect fill="black" height="10" width="10" x="60" y="200" /><rect fill="black" height="10" width="10" x="70" y="200" /><rect fill="black" height="10" width="10" x="100" y="200" /><rect fill="black" height="10" width="10" x="110" y="200" /><rect fill="black" height="10" width="10" x="140" y="200" /><rect fill="black" height="10" width="10" x="160" y="200" /><rect fill="black" height="10" width="10" x="180" y="200" /><rect fill="black" height="10" width="10" x="190" y="200" /><rect fill="black" height="10" width="10" x="230" y="200" /><rect fill="black" height="10" width="10" x="240" y="200" /><rect fill="black" height="10" width="10" x="250" y="200" /><rect fill="black" height="10" width="10" x="260" y="200" /><rect fill="black" height="10" width="10" x="280" y="200" /><rect fill="black" height="10" width="10" x="290" y="200" /><rect fill="black" height="10" width="10" x="320" y="200" /><rect fill="black" height="10" width="10" x="50" y="210" /><rect fill="black" height="10" width="10" x="70" y="210" /><rect fill="black" height="10" width="10" x="90" y="210" /><rect fill="black" height="10" width="10" x="120" y="210" /><rect fill="black" height="10" width="10" x="130" y="210" /><rect fill="black" height="10" width="10" x="170" y="210" /><rect fill="black" height="10" width="10" x="180" y="210" /><rect fill="black" height="10" width="10" x="200" y="210" /><rect fill="black" height="10" width="10" x="220" y="210" /><rect fill="black" height="10" width="10" x="230" y="210" /><rect fill="black" height="10" width="10" x="240" y="210" /><rect fill="black" height="10" width="10" x="260" y="210" /><rect fill="black" height="10" width="10" x="270" y="210" /><rect fill="black" height="10" width="10" x="300" y="210" /><rect fill="black" height="10" width="10" x="40" y="220" /><rect fill="black" height="10" width="10" x="60" y="220" /><rect fill="black" height="10" width="10" x="70" y="220" /><rect fill="black" height="10" width="10" x="100" y="220" /><rect fill="black" height="10" width="10" x="110" y="220" /><rect fill="black" height="10" width="10" x="120" y="220" /><rect fill="black" height="10" width="10" x="150" y="220" /><rect fill="black" height="10" width="10" x="160" y="220" /><rect fill="black" height="10" width="10" x="200" y="220" /><rect fill="black" height="10" width="10" x="210" y="220" /><rect fill="black" height="10" width="10" x="230" y="220" /><rect fill="black" height="10" width="10" x="260" y="220" /><rect fill="black" height="10" width="10" x="270" y="220" /><rect fill="black" height="10" width="10" x="280" y="220" /><rect fill="black" height="10" width="10" x="300" y="220" /><rect fill="black" height="10" width="10" x="70" y="230" /><rect fill="black" height="10" width="10" x="80" y="230" /><rect fill="black" height="10" width="10" x="90" y="230" /><rect fill="black" height="10" width="10" x="140" y="230" /><rect fill="black" height="10" width="10" x="150" y="230" /><rect fill="black" height="10" width="10" x="160" y="230" /><rect fill="black" height="10" width="10" x="170" y="230" /><rect fill="black" height="10" width="10" x="190" y="230" /><rect fill="black" height="10" width="10" x="200" y="230" /><rect fill="black" height="10" width="10" x="210" y="230" /><rect fill="black" height="10" width="10" x="230" y="230" /><rect fill="black" height="10" width="10" x="250" y="230" /><rect fill="black" height="10" width="10" x="260" y="230" /><rect fill="black" height="10" width="10" x="290" y="230" /><rect fill="black" height="10" width="10" x="300" y="230" /><rect fill="black" height="10" width="10" x="320" y="230" /><rect fill="black" height="10" width="10" x="50" y="240" /><rect fill="black" height="10" width="10" x="60" y="240" /><rect fill="black" height="10" width="10" x="70" y="240" /><rect fill="black" height="10" width="10" x="80" y="240" /><rect fill="black" height="10" width="10" x="90" y="240" /><rect fill="black" height="10" width="10" x="100" y="240" /><rect fill="black" height="10" width="10" x="120" y="240" /><rect fill="black" height="10" width="10" x="140" y="240" /><rect fill="black" height="10" width="10" x="220" y="240" /><rect fill="black" height="10" width="10" x="240" y="240" /><rect fill="black" height="10" width="10" x="250" y="240" /><rect fill="black" height="10" width="10" x="260" y="240" /><rect fill="black" height="10" width="10" x="270" y="240" /><rect fill="black" height="10" width="10" x="280" y="240" /><rect fill="black" height="10" width="10" x="290" y="240" /><rect fill="black" height="10" width="10" x="300" y="240" /><rect fill="black" height="10" width="10" x="320" y="240" /><rect fill="black" height="10" width="10" x="120" y="250" /><rect fill="black" height="10" width="10" x="130" y="250" /><rect fill="black" height="10" width="10" x="150" y="250" /><rect fill="black" height="10" width="10" x="160" y="250" /><rect fill="black" height="10" width="10" x="170" y="250" /><rect fill="black" height="10" width="10" x="180" y="250" /><rect fill="black" height="10" width="10" x="200" y="250" /><rect fill="black" height="10" width="10" x="220" y="250" /><rect fill="black" height="10" width="10" x="240" y="250" /><rect fill="black" height="10" width="10" x="280" y="250" /><rect fill="black" height="10" width="10" x="290" y="250" /><rect fill="black" height="10" width="10" x="310" y="250" /><rect fill="black" height="10" width="10" x="320" y="250" /><rect fill="black" height="10" width="10" x="40" y="260" /><rect fill="black" height="10" width="10" x="50" y="260" /><rect fill="black" height="10" width="10" x="60" y="260" /><rect fill="black" height="10" width="10" x="70" y="260" /><rect fill="black" height="10" width="10" x="80" y="260" /><rect fill="black" height="10" width="10" x="90" y="260" /><rect fill="black" height="10" width="10" x="100" y="260" /><rect fill="black" height="10" width="10" x="120" y="260" /><rect fill="black" height="10" width="10" x="130" y="260" /><rect fill="black" height="10" width="10" x="170" y="260" /><rect fill="black" height="10" width="10" x="190" y="260" /><rect fill="black" height="10" width="10" x="210" y="260" /><rect fill="black" height="10" width="10" x="230" y="260" /><rect fill="black" height="10" width="10" x="240" y="260" /><rect fill="black" height="10" width="10" x="260" y="260" /><rect fill="black" height="10" width="10" x="280" y="260" /><rect fill="black" height="10" width="10" x="300" y="260" /><rect fill="black" height="10" width="10" x="310" y="260" /><rect fill="black" height="10" width="10" x="40" y="270" /><rect fill="black" height="10" width="10" x="100" y="270" /><rect fill="black" height="10" width="10" x="130" y="270" /><rect fill="black" height="10" width="10" x="160" y="270" /><rect fill="black" height="10" width="10" x="180" y="270" /><rect fill="black" height="10" width="10" x="200" y="270" /><rect fill="black" height="10" width="10" x="220" y="270" /><rect fill="black" height="10" width="10" x="240" y="270" /><rect fill="black" height="10" width="10" x="280" y="270" /><rect fill="black" height="10" width="10" x="320" y="270" /><rect fill="black" height="10" width="10" x="40" y="280" /><rect fill="black" height="10" width="10" x="60" y="280" /><rect fill="black" height="10" width="10" x="70" y="280" /><rect fill="black" height="10" width="10" x="80" y="280" /><rect fill="black" height="10" width="10" x="100" y="280" /><rect fill="black" height="10" width="10" x="130" y="280" /><rect fill="black" height="10" width="10" x="140" y="280" /><rect fill="black" height="10" width="10" x="160" y="280" /><rect fill="black" height="10" width="10" x="200" y="280" /><rect fill="black" height="10" width="10" x="240" y="280" /><rect fill="black" height="10" width="10" x="250" y="280" /><rect fill="black" height="10" width="10" x="260" y="280" /><rect fill="black" height="10" width="10" x="270" y="280" /><rect fill="black" height="10" width="10" x="280" y="280" /><rect fill="black" height="10" width="10" x="290" y="280" /><rect fill="black" height="10" width="10" x="300" y="280" /><rect fill="black" height="10" width="10" x="310" y="280" /><rect fill="black" height="10" width="10" x="320" y="280" /><rect fill="black" height="10" width="10" x="40" y="290" /><rect fill="black" height="10" width="10" x="60" y="290" /><rect fill="black" height="10" width="10" x="70" y="290" /><rect fill="black" height="10" width="10" x="80" y="290" /><rect fill="black" height="10" width="10" x="100" y="290" /><rect fill="black" height="10" width="10" x="120" y="290" /><rect fill="black" height="10" width="10" x="140" y="290" /><rect fill="black" height="10" width="10" x="150" y="290" /><rect fill="black" height="10" width="10" x="180" y="290" /><rect fill="black" height="10" width="10" x="220" y="290" /><rect fill="black" height="10" width="10" x="230" y="290" /><rect fill="black" height="10" width="10" x="280" y="290" /><rect fill="black" height="10" width="10" x="290" y="290" /><rect fill="black" height="10" width="10" x="310" y="290" /><rect fill="black" height="10" width="10" x="40" y="300" /><rect fill="black" height="10" width="10" x="60" y="300" /><rect fill="black" height="10" width="10" x="70" y="300" /><rect fill="black" height="10" width="10" x="80" y="300" /><rect fill="black" height="10" width="10" x="100" y="300" /><rect fill="black" height="10" width="10" x="120" y="300" /><rect fill="black" height="10" width="10" x="130" y="300" /><rect fill="black" height="10" width="10" x="140" y="300" /><rect fill="black" height="10" width="10" x="150" y="300" /><rect fill="black" height="10" width="10" x="180" y="300" /><rect fill="black" height="10" width="10" x="200" y="300" /><rect fill="black" height="10" width="10" x="240" y="300" /><rect fill="black" height="10" width="10" x="270" y="300" /><rect fill="black" height="10" width="10" x="290" y="300" /><rect fill="black" height="10" width="10" x="300" y="300" /><rect fill="black" height="10" width="10" x="320" y="300" /><rect fill="black" height="10" width="10" x="40" y="310" /><rect fill="black" height="10" width="10" x="100" y="310" /><rect fill="black" height="10" width="10" x="130" y="310" /><rect fill="black" height="10" width="10" x="160" y="310" /><rect fill="black" height="10" width="10" x="170" y="310" /><rect fill="black" height="10" width="10" x="200" y="310" /><rect fill="black" height="10" width="10" x="230" y="310" /><rect fill="black" height="10" width="10" x="250" y="310" /><rect fill="black" height="10" width="10" x="280" y="310" /><rect fill="black" height="10" width="10" x="290" y="310" /><rect fill="black" height="10" width="10" x="310" y="310" /><rect fill="black" height="10" width="10" x="40" y="320" /><rect fill="black" height="10" width="10" x="50" y="320" /><rect fill="black" height="10" width="10" x="60" y="320" /><rect fill="black" height="10" width="10" x="70" y="320" /><rect fill="black" height="10" width="10" x="80" y="320" /><rect fill="black" height="10" width="10" x="90" y="320" /><rect fill="black" height="10" width="10" x="100" y="320" /><rect fill="black" height="10" width="10" x="140" y="320" /><rect fill="black" height="10" width="10" x="170" y="320" /><rect fill="black" height="10" width="10" x="180" y="320" /><rect fill="black" height="10" width="10" x="190" y="320" /><rect fill="black" height="10" width="10" x="200" y="320" /><rect fill="black" height="10" width="10" x="220" y="320" /><rect fill="black" height="10" width="10" x="240" y="320" /><rect fill="black" height="10" width="10" x="250" y="320" /><rect fill="black" height="10" width="10" x="270" y="320" /><rect fill="black" height="10" width="10" x="310" y="320" /></svg>